<svg width="493" height="356" viewBox="0 0 493 356" fill="none" xmlns="http://www.w3.org/2000/svg">
<path d="M260.468 123.689C285.074 123.984 299.04 84.8508 352.09 81.2289C403.536 77.7545 442.906 123.807 440.78 168.609C438.142 223.421 388.231 284.208 340.142 285.359C289.828 286.56 260.685 244.602 231.128 237.033C200.469 229.159 159.367 268.529 99.8015 246.462C53.1488 229.189 34.7534 185.243 60.6487 117.783C77.1444 74.8018 113.354 38.4343 177.891 57.0856C226.256 70.983 233.077 123.354 260.468 123.689Z" fill="url(#paint0_linear_1615_758)"/>
<path opacity="0.9" d="M260.468 123.689C285.074 123.984 299.04 84.8508 352.09 81.2289C403.536 77.7545 442.906 123.807 440.78 168.609C438.142 223.421 388.231 284.208 340.142 285.359C289.828 286.56 260.685 244.602 231.128 237.033C200.469 229.159 159.367 268.529 99.8015 246.462C53.1488 229.189 34.7534 185.243 60.6487 117.783C77.1444 74.8018 113.354 38.4343 177.891 57.0856C226.256 70.983 233.077 123.354 260.468 123.689Z" fill="white"/>
<path d="M196.177 355.811C237.033 355.811 270.152 352.409 270.152 348.212C270.152 344.016 237.033 340.614 196.177 340.614C155.322 340.614 122.202 344.016 122.202 348.212C122.202 352.409 155.322 355.811 196.177 355.811Z" fill="#F5F5F5"/>
<path d="M331.224 352.051C351.652 352.051 368.211 349.491 368.211 346.332C368.211 343.174 351.652 340.614 331.224 340.614C310.796 340.614 294.236 343.174 294.236 346.332C294.236 349.491 310.796 352.051 331.224 352.051Z" fill="#F5F5F5"/>
<path d="M292.023 271.826C292.023 271.708 291.954 271.59 291.914 271.471C291.353 269.975 289.227 269.375 289.227 269.375C288.744 270.137 288.469 271.013 288.43 271.914L288.115 272.023L287.8 272.151C287.18 271.496 286.399 271.014 285.536 270.753C285.536 270.753 284.316 272.593 284.877 274.099L285.025 274.434C284.775 274.796 284.613 275.211 284.551 275.647C284.49 276.083 284.531 276.527 284.67 276.944C285.32 278.706 287.938 279.365 290.497 278.41C293.056 277.456 294.601 275.251 293.942 273.489C293.771 273.083 293.509 272.722 293.176 272.434C292.843 272.146 292.448 271.937 292.023 271.826Z" fill="url(#paint1_linear_1615_758)"/>
<path opacity="0.8" d="M292.023 271.826C292.023 271.708 291.954 271.59 291.914 271.471C291.353 269.975 289.227 269.375 289.227 269.375C288.744 270.137 288.469 271.013 288.43 271.914L288.115 272.023L287.8 272.151C287.18 271.496 286.399 271.014 285.536 270.753C285.536 270.753 284.316 272.593 284.877 274.099L285.025 274.434C284.775 274.796 284.613 275.211 284.551 275.647C284.49 276.083 284.531 276.527 284.67 276.944C285.32 278.706 287.938 279.365 290.497 278.41C293.056 277.456 294.601 275.251 293.942 273.489C293.771 273.083 293.509 272.722 293.176 272.434C292.843 272.146 292.448 271.937 292.023 271.826Z" fill="white"/>
<path d="M295.92 226.374C284.237 227.102 270.389 308.705 257.653 303.577C252.259 301.412 247.446 282.721 243.696 261.915L239.316 263.539C241.925 276.688 254.385 333.114 269.956 298.508C287.495 259.513 292.672 199.691 305.516 247.171L306.933 246.492C306.933 246.492 303.292 225.911 295.92 226.374Z" fill="url(#paint2_linear_1615_758)"/>
<path opacity="0.3" d="M295.92 226.374C284.237 227.102 270.389 308.705 257.653 303.577C252.259 301.412 247.446 282.721 243.696 261.915L239.316 263.539C241.925 276.688 254.385 333.114 269.956 298.508C287.495 259.513 292.672 199.691 305.516 247.171L306.933 246.492C306.933 246.492 303.292 225.911 295.92 226.374Z" fill="black"/>
<path d="M313.174 238.795C313.174 238.795 315.024 225.163 330.339 212.762C345.654 200.361 356.037 208.766 356.037 208.766L360.122 211.443L360.329 222.9L354.522 233.008L340.073 244.474L325.152 248.687L317.908 245.429L313.174 238.795Z" fill="url(#paint3_linear_1615_758)"/>
<path opacity="0.5" d="M313.174 238.795C313.174 238.795 315.024 225.163 330.339 212.762C345.654 200.361 356.037 208.766 356.037 208.766L360.122 211.443L360.329 222.9L354.522 233.008L340.073 244.474L325.152 248.687L317.908 245.429L313.174 238.795Z" fill="white"/>
<path d="M279.316 248.362L302.623 258.204L318.429 247.535L294.808 242.909C292.112 242.382 289.339 242.392 286.647 242.937C283.955 243.483 281.397 244.554 279.119 246.088C278.918 246.213 278.756 246.391 278.65 246.602C278.544 246.813 278.499 247.05 278.519 247.285C278.54 247.521 278.625 247.746 278.766 247.936C278.906 248.126 279.097 248.273 279.316 248.362Z" fill="#263238"/>
<path d="M308.911 292.239L308.488 266.924L324.295 256.265L319.738 279.887C319.214 282.587 318.161 285.156 316.641 287.448C315.121 289.74 313.163 291.709 310.88 293.243C310.692 293.364 310.475 293.433 310.252 293.444C310.029 293.455 309.807 293.407 309.608 293.306C309.409 293.204 309.239 293.052 309.117 292.865C308.995 292.678 308.924 292.462 308.911 292.239Z" fill="#263238"/>
<g opacity="0.5">
<path d="M279.316 248.362L302.623 258.204L318.429 247.535L294.808 242.909C292.112 242.382 289.339 242.392 286.647 242.937C283.955 243.483 281.397 244.554 279.119 246.088C278.918 246.213 278.756 246.391 278.65 246.602C278.544 246.813 278.499 247.05 278.519 247.285C278.54 247.521 278.625 247.746 278.766 247.936C278.906 248.126 279.097 248.273 279.316 248.362Z" fill="white"/>
<path d="M308.911 292.239L308.488 266.924L324.295 256.265L319.738 279.887C319.214 282.587 318.161 285.156 316.641 287.448C315.121 289.74 313.163 291.709 310.88 293.243C310.692 293.364 310.475 293.433 310.252 293.444C310.029 293.455 309.807 293.407 309.608 293.306C309.409 293.204 309.239 293.052 309.117 292.865C308.995 292.678 308.924 292.462 308.911 292.239Z" fill="white"/>
</g>
<path d="M386.174 205.607C377.205 204.495 368.104 205.198 359.412 207.673L361.174 217.063L360.328 222.88L351.223 235.675L341.893 241.974L328.734 247.19L317.907 245.429L310.634 241.137C305.525 245.891 300.457 250.901 295.87 255.793C297.671 258.903 299.63 262.033 301.776 265.143C303.921 268.253 306.037 271.235 308.252 274.07C328.458 266.353 351.745 253.982 361.105 247.663C374.619 238.577 384.381 224.901 388.585 209.169C388.688 208.775 388.705 208.364 388.636 207.963C388.567 207.562 388.413 207.18 388.185 206.843C387.957 206.505 387.66 206.221 387.313 206.008C386.966 205.794 386.578 205.658 386.174 205.607Z" fill="#263238"/>
<path opacity="0.6" d="M386.174 205.607C377.205 204.495 368.104 205.198 359.412 207.673L361.174 217.063L360.328 222.88L351.223 235.675L341.893 241.974L328.734 247.19L317.907 245.429L310.634 241.137C305.525 245.891 300.457 250.901 295.87 255.793C297.671 258.903 299.63 262.033 301.776 265.143C303.921 268.253 306.037 271.235 308.252 274.07C328.458 266.353 351.745 253.982 361.105 247.663C374.619 238.577 384.381 224.901 388.585 209.169C388.688 208.775 388.705 208.364 388.636 207.963C388.567 207.562 388.413 207.18 388.185 206.843C387.957 206.505 387.66 206.221 387.313 206.008C386.966 205.794 386.578 205.658 386.174 205.607Z" fill="white"/>
<path d="M301.766 265.143C299.797 262.269 298.026 259.395 296.333 256.521C294.709 258.155 293.114 259.798 291.599 261.442C293.036 263.909 294.587 266.383 296.254 268.863C297.921 271.344 299.637 273.709 301.402 275.96C303.478 275.162 305.594 274.306 307.72 273.41C305.693 270.763 303.695 268.007 301.766 265.143Z" fill="#263238"/>
<path opacity="0.1" d="M387.67 207.831C379.274 216.6 367.306 226.531 353.221 236.039C344.068 242.21 322.71 255.802 304.846 266.462C304.685 266.559 304.545 266.688 304.435 266.841C304.325 266.994 304.246 267.167 304.205 267.351C304.164 267.535 304.16 267.726 304.194 267.911C304.228 268.096 304.299 268.273 304.403 268.43L305.998 270.782C306.179 271.059 306.454 271.261 306.771 271.353C307.089 271.445 307.429 271.421 307.73 271.284C327.011 262.564 349.255 249.976 358.448 243.726C372.148 234.494 382.207 222.338 387.807 209.652C387.938 209.349 387.99 209.018 387.959 208.689C387.928 208.361 387.815 208.045 387.63 207.772L387.67 207.831Z" fill="black"/>
<g opacity="0.4">
<path d="M314.02 243.106C308.636 247.702 303.193 252.535 298.272 257.239C297.992 257.494 297.826 257.849 297.808 258.226C297.791 258.604 297.924 258.973 298.178 259.252C298.433 259.531 298.788 259.698 299.165 259.716C299.543 259.733 299.912 259.6 300.191 259.346C305.673 254.67 311.657 249.808 317.533 245.182L314.02 243.106Z" fill="white"/>
<path d="M360.121 211.443L360.869 215.429C369.069 211.289 377.794 208.282 386.804 206.492L386.499 206.049C377.455 206.266 368.523 208.092 360.121 211.443Z" fill="white"/>
</g>
<path d="M360.978 207.28C359.318 207.713 357.678 208.208 356.057 208.766C358.252 213.854 358.852 218.323 357.888 222.289C356.51 227.968 351.805 233.254 343.518 238.45C335.23 243.647 328.42 245.576 322.711 244.356C319.071 243.453 315.767 241.523 313.193 238.795C311.934 239.943 310.677 241.108 309.424 242.289C319.404 252.24 331.077 252.299 346.244 242.801C362.198 232.801 366.923 221.62 360.978 207.28Z" fill="#263238"/>
<path opacity="0.5" d="M360.978 207.28C359.318 207.713 357.678 208.208 356.057 208.766C358.252 213.854 358.852 218.323 357.888 222.289C356.51 227.968 351.805 233.254 343.518 238.45C335.23 243.647 328.42 245.576 322.711 244.356C319.071 243.453 315.767 241.523 313.193 238.795C311.934 239.943 310.677 241.108 309.424 242.289C319.404 252.24 331.077 252.299 346.244 242.801C362.198 232.801 366.923 221.62 360.978 207.28Z" fill="white"/>
<g opacity="0.2">
<path d="M321.49 245.557C321.633 245.782 321.706 246.045 321.699 246.313C321.693 246.58 321.607 246.839 321.452 247.057C321.298 247.275 321.083 247.443 320.833 247.538C320.583 247.634 320.311 247.653 320.051 247.593C319.79 247.534 319.553 247.398 319.37 247.204C319.187 247.009 319.065 246.765 319.021 246.501C318.977 246.237 319.013 245.967 319.123 245.723C319.233 245.48 319.413 245.275 319.64 245.134C319.942 244.946 320.305 244.885 320.652 244.964C320.999 245.044 321.3 245.257 321.49 245.557Z" fill="black"/>
<path d="M335.752 245.153C335.894 245.379 335.965 245.642 335.958 245.908C335.951 246.175 335.864 246.433 335.71 246.651C335.556 246.868 335.341 247.035 335.092 247.13C334.843 247.226 334.571 247.245 334.311 247.186C334.051 247.127 333.814 246.992 333.631 246.798C333.448 246.604 333.326 246.361 333.281 246.098C333.236 245.835 333.27 245.565 333.379 245.321C333.487 245.078 333.666 244.872 333.891 244.73C334.041 244.636 334.208 244.572 334.383 244.542C334.558 244.512 334.736 244.517 334.909 244.556C335.082 244.595 335.245 244.668 335.39 244.771C335.534 244.873 335.657 245.003 335.752 245.153Z" fill="black"/>
<path d="M349.206 237.693C349.346 237.917 349.416 238.178 349.408 238.442C349.4 238.706 349.314 238.962 349.16 239.178C349.007 239.393 348.793 239.558 348.546 239.652C348.299 239.746 348.029 239.765 347.772 239.706C347.514 239.647 347.279 239.513 347.098 239.321C346.916 239.129 346.795 238.887 346.751 238.627C346.706 238.366 346.74 238.098 346.847 237.857C346.955 237.615 347.132 237.411 347.355 237.27C347.504 237.175 347.671 237.112 347.845 237.082C348.018 237.052 348.197 237.057 348.368 237.096C348.54 237.136 348.703 237.209 348.847 237.311C348.99 237.413 349.112 237.543 349.206 237.693Z" fill="black"/>
<path d="M359.245 227.713C359.388 227.938 359.461 228.201 359.454 228.468C359.448 228.736 359.362 228.995 359.207 229.213C359.053 229.431 358.838 229.599 358.588 229.694C358.338 229.79 358.066 229.809 357.806 229.749C357.545 229.69 357.308 229.554 357.125 229.359C356.942 229.165 356.82 228.92 356.776 228.657C356.732 228.393 356.767 228.123 356.878 227.879C356.988 227.636 357.168 227.43 357.395 227.289C357.544 227.195 357.71 227.131 357.884 227.102C358.058 227.072 358.236 227.077 358.408 227.116C358.58 227.156 358.742 227.228 358.886 227.331C359.03 227.433 359.152 227.563 359.245 227.713Z" fill="black"/>
<path d="M361.509 213.412C361.651 213.637 361.723 213.9 361.716 214.167C361.708 214.433 361.622 214.692 361.468 214.909C361.314 215.127 361.099 215.294 360.85 215.389C360.601 215.484 360.329 215.503 360.069 215.444C359.809 215.385 359.572 215.25 359.389 215.056C359.206 214.863 359.084 214.619 359.039 214.356C358.994 214.094 359.028 213.823 359.137 213.58C359.245 213.336 359.424 213.13 359.649 212.988C359.799 212.893 359.966 212.828 360.141 212.797C360.316 212.767 360.495 212.771 360.668 212.81C360.841 212.85 361.005 212.923 361.149 213.026C361.294 213.13 361.416 213.261 361.509 213.412Z" fill="black"/>
</g>
<path d="M363.803 206.61C367.668 215.046 372.892 222.789 379.265 229.533C383.481 223.311 386.628 216.428 388.576 209.169C388.678 208.776 388.696 208.366 388.628 207.965C388.559 207.564 388.407 207.183 388.179 206.846C387.952 206.509 387.656 206.224 387.31 206.01C386.965 205.797 386.577 205.659 386.174 205.606C378.713 204.696 371.152 205.036 363.803 206.61Z" fill="url(#paint4_linear_1615_758)"/>
<path d="M316.529 255.182C317.602 256.787 312.592 262.072 310.988 263.135C309.384 264.198 290.86 274.828 289.778 273.224C288.695 271.619 305.466 258.46 307.071 257.338C308.675 256.216 315.447 253.578 316.529 255.182Z" fill="#263238"/>
<path opacity="0.5" d="M316.529 255.182C317.602 256.787 312.592 262.072 310.988 263.135C309.384 264.198 290.86 274.828 289.778 273.224C288.695 271.619 305.466 258.46 307.071 257.338C308.675 256.216 315.447 253.578 316.529 255.182Z" fill="white"/>
<path opacity="0.5" d="M340.102 210.439C336.976 211.482 334.077 213.108 331.559 215.232C318.931 225.468 317.405 236.718 317.405 236.718L318.527 238.283C319.728 234.208 323.271 225.596 333.202 217.555C335.589 215.561 338.281 213.963 341.175 212.821L340.102 210.439Z" fill="white"/>
<path opacity="0.5" d="M345.299 209.642L345.83 211.61C348.097 211.324 350.398 211.54 352.572 212.24L352.435 211.66C350.295 210.326 347.82 209.626 345.299 209.642Z" fill="white"/>
<path d="M135.076 172.861H134.712C133.14 172.859 131.603 173.321 130.293 174.19H130.234C117.061 182.754 107.369 195.729 102.893 210.791C98.418 225.852 99.4521 242.015 105.811 256.383C112.169 270.751 123.436 282.385 137.593 289.2C151.75 296.016 167.871 297.568 183.068 293.577C183.675 293.424 184.228 293.103 184.662 292.652L184.721 292.593C185.164 292.138 185.469 291.567 185.601 290.946C185.733 290.325 185.687 289.679 185.468 289.084C185.249 288.488 184.865 287.966 184.362 287.579C183.859 287.191 183.257 286.954 182.625 286.895C171.524 285.911 160.905 281.9 151.927 275.298C142.948 268.696 135.954 259.756 131.706 249.453C127.459 239.149 126.12 227.878 127.838 216.866C129.555 205.854 134.261 195.525 141.444 187.005C142.481 185.762 143.148 184.254 143.368 182.651C143.587 181.048 143.352 179.415 142.687 177.94C142.023 176.464 140.957 175.206 139.611 174.307C138.265 173.409 136.694 172.908 135.076 172.861Z" fill="url(#paint5_linear_1615_758)"/>
<path opacity="0.5" d="M184.721 292.593L184.662 292.652C184.227 293.098 183.679 293.418 183.077 293.578C170.477 296.869 157.186 296.369 144.869 292.141C142.41 291.303 140.004 290.317 137.665 289.188C126.801 283.957 117.574 275.855 110.981 265.759C104.389 255.662 100.683 243.956 100.264 231.905L100.352 225.636C100.975 215.327 104.002 205.307 109.19 196.377C114.379 187.447 121.586 179.855 130.234 174.21H130.293C131.606 173.339 133.147 172.877 134.722 172.881H135.086C136.701 172.929 138.269 173.43 139.612 174.327C140.956 175.224 142.02 176.481 142.683 177.954C143.346 179.427 143.581 181.057 143.362 182.657C143.143 184.258 142.479 185.764 141.444 187.005C134.111 195.728 129.37 206.333 127.759 217.615C126.148 228.897 127.731 240.405 132.33 250.832C132.881 252.092 133.491 253.342 134.141 254.582C135.02 256.236 135.982 257.876 137.025 259.503C143.179 268.984 151.867 276.55 162.103 281.344C163.363 281.944 164.633 282.485 165.922 282.987C171.286 285.082 176.919 286.408 182.654 286.924C183.278 286.993 183.87 287.235 184.364 287.622C184.857 288.01 185.233 288.527 185.448 289.117C185.663 289.707 185.708 290.345 185.58 290.959C185.452 291.573 185.154 292.139 184.721 292.593Z" fill="white"/>
<path opacity="0.1" d="M185.44 289.03C185.224 288.443 184.844 287.929 184.345 287.551C183.846 287.172 183.249 286.944 182.625 286.895C171.524 285.911 160.905 281.9 151.927 275.298C142.948 268.696 135.954 259.756 131.707 249.453C127.459 239.149 126.121 227.878 127.838 216.866C129.555 205.854 134.262 195.525 141.445 187.005C142.442 185.83 143.102 184.407 143.354 182.886C143.605 181.366 143.438 179.806 142.872 178.373C141.795 178.426 140.752 178.766 139.85 179.357H139.801C114.851 195.617 109.536 231.669 127.921 259.877C141.553 280.812 164.368 291.511 185.44 289.03Z" fill="black"/>
<path d="M185.913 286.412C184.141 284.779 182.694 285.782 181.838 286.816L182.625 286.914C183.257 286.974 183.86 287.211 184.363 287.598C184.866 287.986 185.249 288.507 185.468 289.103C185.688 289.699 185.734 290.345 185.602 290.966C185.47 291.587 185.164 292.158 184.722 292.613L184.663 292.672C184.429 292.908 184.164 293.11 183.875 293.272C187.094 296.304 188.915 289.149 185.913 286.412Z" fill="url(#paint6_linear_1615_758)"/>
<g opacity="0.2">
<path d="M185.913 286.412C184.141 284.779 182.694 285.782 181.838 286.816L182.625 286.914C183.257 286.974 183.86 287.211 184.363 287.598C184.866 287.986 185.249 288.507 185.468 289.103C185.688 289.699 185.734 290.345 185.602 290.966C185.47 291.587 185.164 292.158 184.722 292.613L184.663 292.672C184.429 292.908 184.164 293.11 183.875 293.272C187.094 296.304 188.915 289.149 185.913 286.412Z" fill="white"/>
</g>
<path d="M207.388 195.105C203.658 189.495 199.672 187.457 201.414 168.107C203.156 148.757 182.507 144.594 175.715 151.109C168.924 157.625 174.515 169.515 187.91 171.158C187.91 171.158 176.188 227.821 204.15 215.449C208.461 213.579 213.136 203.736 207.388 195.105Z" fill="url(#paint7_linear_1615_758)"/>
<path opacity="0.5" d="M207.388 195.105C203.658 189.495 199.672 187.457 201.414 168.107C203.156 148.757 182.507 144.594 175.715 151.109C168.924 157.625 174.515 169.515 187.91 171.158C187.91 171.158 176.188 227.821 204.15 215.449C208.461 213.579 213.136 203.736 207.388 195.105Z" fill="white"/>
<path d="M187.694 168.796C184.407 168.422 173.019 162.96 181.503 157.114C189.987 151.267 201.119 170.273 187.694 168.796Z" fill="url(#paint8_linear_1615_758)"/>
<path d="M187.615 173.334C193.668 173.708 199.229 169.849 202.378 165.007C203.166 163.816 201.247 162.704 200.469 163.885C197.684 168.107 192.831 171.444 187.566 171.119C186.139 171.03 186.148 173.245 187.566 173.334H187.615Z" fill="url(#paint9_linear_1615_758)"/>
<g opacity="0.2">
<path d="M187.694 168.796C184.407 168.422 173.019 162.96 181.503 157.114C189.987 151.267 201.119 170.273 187.694 168.796Z" fill="white"/>
<path d="M187.615 173.334C193.668 173.708 199.229 169.849 202.378 165.007C203.166 163.816 201.247 162.704 200.469 163.885C197.684 168.107 192.831 171.444 187.566 171.119C186.139 171.03 186.148 173.245 187.566 173.334H187.615Z" fill="white"/>
</g>
<path opacity="0.1" d="M204.151 215.459C208.462 213.559 213.137 203.756 207.389 195.105C206.493 193.756 205.588 192.625 204.741 191.404C200.669 199.387 195.624 206.835 189.722 213.579C192.546 217.289 197.074 218.589 204.151 215.459Z" fill="black"/>
<path d="M188.727 263.45C191.138 256.393 192.054 214.357 166.621 243.451C166.621 243.451 168.895 206.424 152.31 216.089C134.013 226.758 151.651 234.681 148.481 255.724C145.312 276.767 164.692 261.807 164.692 261.807C164.692 261.807 176.562 299.08 188.727 263.45Z" fill="url(#paint10_linear_1615_758)"/>
<path opacity="0.5" d="M188.727 263.45C191.138 256.393 192.054 214.357 166.621 243.451C166.621 243.451 168.895 206.424 152.31 216.089C134.013 226.758 151.651 234.681 148.481 255.724C145.312 276.767 164.692 261.807 164.692 261.807C164.692 261.807 176.562 299.08 188.727 263.45Z" fill="white"/>
<path d="M148.62 218.608C136.75 228.106 151.415 236.325 148.502 255.724C147.986 258.214 147.986 260.783 148.502 263.273C148.807 263.716 158.088 276.954 161.514 243.106C164.909 209.908 149.693 217.988 148.62 218.608Z" fill="url(#paint11_linear_1615_758)"/>
<path opacity="0.2" d="M148.62 218.608C136.75 228.106 151.415 236.325 148.502 255.724C147.986 258.214 147.986 260.783 148.502 263.273C148.807 263.716 158.088 276.954 161.514 243.106C164.909 209.908 149.693 217.988 148.62 218.608Z" fill="white"/>
<g opacity="0.5">
<path d="M147.517 227.142L155.391 221.236C156.149 220.666 155.391 219.386 154.653 219.957L146.779 225.862C146.021 226.423 146.779 227.713 147.517 227.142Z" fill="white"/>
<path d="M148.62 233.461L158.275 227.191C159.063 226.679 158.275 225.4 157.527 225.921L147.872 232.191C147.075 232.703 147.813 233.982 148.62 233.461Z" fill="white"/>
<path d="M150.057 239.976L159.712 233.707C160.509 233.185 159.771 231.905 158.964 232.427L149.309 238.697C148.521 239.218 149.309 240.498 150.057 239.976Z" fill="white"/>
<path d="M151.09 247.043L159.101 241.846C159.899 241.325 159.161 240.045 158.363 240.567L150.352 245.773C149.554 246.285 150.293 247.565 151.09 247.043Z" fill="white"/>
<path d="M151.13 253.726L158.128 249.179C158.915 248.667 158.177 247.388 157.38 247.909L150.382 252.447C149.594 252.968 150.382 254.248 151.13 253.726Z" fill="white"/>
<path d="M150.657 260.665L157.655 256.127C158.452 255.606 157.655 254.326 156.907 254.848L149.919 259.395C149.122 259.907 149.86 261.186 150.657 260.665Z" fill="white"/>
</g>
<path d="M166.582 241.836C166.828 248.933 164.889 256.216 162.645 262.86C162.183 264.208 164.318 264.828 164.781 263.45C167.104 256.639 169.072 249.11 168.816 241.797C168.767 240.37 166.553 240.36 166.602 241.797L166.582 241.836Z" fill="url(#paint12_linear_1615_758)"/>
<g opacity="0.2">
<path d="M166.582 241.836C166.828 248.933 164.889 256.216 162.645 262.86C162.183 264.208 164.318 264.828 164.781 263.45C167.104 256.639 169.072 249.11 168.816 241.797C168.767 240.37 166.553 240.36 166.602 241.797L166.582 241.836Z" fill="white"/>
</g>
<path opacity="0.1" d="M168.108 269.946C172.507 278.41 180.548 287.396 188.727 263.45C190.627 257.889 191.592 230.606 179.466 233.529C178.113 235.354 176.858 237.25 175.706 239.208C172.409 244.927 167.842 257.968 168.108 269.946Z" fill="black"/>
<path d="M256.708 207.732C256.708 207.732 280.33 265.743 220.291 290.743C168.127 312.475 170.243 256.846 176.985 242.515C184.997 225.478 209.79 202.162 210.124 179.849L256.708 207.732Z" fill="url(#paint13_linear_1615_758)"/>
<path opacity="0.7" d="M256.708 207.732C256.708 207.732 280.33 265.743 220.291 290.743C168.127 312.475 170.243 256.846 176.985 242.515C184.997 225.478 209.79 202.162 210.124 179.849L256.708 207.732Z" fill="white"/>
<path d="M305.585 160.489C305.585 172.978 301.02 185.035 292.748 194.391C284.476 203.747 273.069 209.756 260.674 211.286C258.598 211.543 256.507 211.671 254.415 211.67C244.292 211.67 234.397 208.668 225.98 203.044C217.564 197.42 211.004 189.427 207.13 180.075C203.257 170.723 202.243 160.433 204.218 150.505C206.193 140.577 211.067 131.457 218.225 124.299C225.382 117.142 234.502 112.267 244.43 110.293C254.358 108.318 264.648 109.331 274 113.205C283.352 117.079 291.346 123.639 296.969 132.055C302.593 140.472 305.595 150.367 305.595 160.489H305.585Z" fill="url(#paint14_linear_1615_758)"/>
<path opacity="0.3" d="M305.585 160.489C305.585 172.978 301.02 185.035 292.748 194.391C284.476 203.747 273.069 209.756 260.674 211.286C258.598 211.543 256.507 211.671 254.415 211.67C244.292 211.67 234.397 208.668 225.98 203.044C217.564 197.42 211.004 189.427 207.13 180.075C203.257 170.723 202.243 160.433 204.218 150.505C206.193 140.577 211.067 131.457 218.225 124.299C225.382 117.142 234.502 112.267 244.43 110.293C254.358 108.318 264.648 109.331 274 113.205C283.352 117.079 291.346 123.639 296.969 132.055C302.593 140.472 305.595 150.367 305.595 160.489H305.585Z" fill="white"/>
<path d="M260.084 206.482C271.305 205.097 281.633 199.656 289.122 191.185C296.611 182.713 300.744 171.796 300.742 160.489C300.742 160.155 300.742 159.81 300.742 159.505C300.674 156.058 299.274 152.771 296.835 150.335C294.397 147.898 291.109 146.5 287.662 146.434H286.884C274.537 146.434 262.696 151.339 253.966 160.07C245.235 168.8 240.33 180.642 240.33 192.989V193.776C240.4 197.221 241.8 200.506 244.236 202.944C246.672 205.382 249.955 206.784 253.401 206.857H254.385C256.29 206.848 258.193 206.723 260.084 206.482Z" fill="url(#paint15_linear_1615_758)"/>
<path opacity="0.3" d="M260.084 206.482C271.305 205.097 281.633 199.656 289.122 191.185C296.611 182.713 300.744 171.796 300.742 160.489C300.742 160.155 300.742 159.81 300.742 159.505C300.674 156.058 299.274 152.771 296.835 150.335C294.397 147.898 291.109 146.5 287.662 146.434H286.884C274.537 146.434 262.696 151.339 253.966 160.07C245.235 168.8 240.33 180.642 240.33 192.989V193.776C240.4 197.221 241.8 200.506 244.236 202.944C246.672 205.382 249.955 206.784 253.401 206.857H254.385C256.29 206.848 258.193 206.723 260.084 206.482Z" fill="white"/>
<path d="M258.637 213.736C258.09 211.701 257.433 209.697 256.669 207.732L210.085 179.849C210.032 182.391 209.702 184.919 209.101 187.388L216.571 198.107L226.728 206.788L240.439 211.709L254.385 214.514L258.637 213.736Z" fill="#263238"/>
<path opacity="0.5" d="M258.637 213.736C258.09 211.701 257.433 209.697 256.669 207.732L210.085 179.849C210.032 182.391 209.702 184.919 209.101 187.388L216.571 198.107L226.728 206.788L240.439 211.709L254.385 214.514L258.637 213.736Z" fill="white"/>
<path d="M248.244 139.092C247.821 150.096 242.516 159.407 236.433 159.899C230.351 160.391 225.705 151.867 226.128 140.864C226.552 129.86 237.939 120.057 237.939 120.057C237.939 120.057 248.667 128.098 248.244 139.092Z" fill="#263238"/>
<path opacity="0.6" d="M248.244 139.092C247.821 150.096 242.516 159.407 236.433 159.899C230.351 160.391 225.705 151.867 226.128 140.864C226.552 129.86 237.939 120.057 237.939 120.057C237.939 120.057 248.667 128.098 248.244 139.092Z" fill="white"/>
<path opacity="0.2" d="M241.837 137.695C241.591 144.112 238.5 149.505 234.947 149.84C231.394 150.175 228.678 145.155 228.924 138.728C229.17 132.301 235.813 126.583 235.813 126.583C235.813 126.583 242.122 131.267 241.837 137.695Z" fill="black"/>
<path d="M273.371 151.257C265.36 158.659 261.747 168.776 265.31 173.895C268.873 179.013 278.243 177.093 286.255 169.702C294.266 162.31 294.326 147.064 294.326 147.064C294.326 147.064 281.383 143.866 273.371 151.257Z" fill="url(#paint16_linear_1615_758)"/>
<path opacity="0.2" d="M273.371 151.257C265.36 158.659 261.747 168.776 265.31 173.895C268.873 179.013 278.243 177.093 286.255 169.702C294.266 162.31 294.326 147.064 294.326 147.064C294.326 147.064 281.383 143.866 273.371 151.257Z" fill="black"/>
<path opacity="0.2" d="M275.763 153.285C271.088 157.606 268.982 163.511 271.059 166.473C273.135 169.436 278.618 168.353 283.293 164.033C287.968 159.712 287.997 150.834 287.997 150.834C287.997 150.834 280.448 148.964 275.763 153.285Z" fill="black"/>
<path d="M279.11 197.733L279.966 198.392C280.586 198.865 281.502 198.235 281.492 197.408C281.276 194.809 281.223 192.199 281.334 189.593C283.824 171.729 280.252 148.108 262.998 139.909C245.744 131.71 225.656 144.102 213.786 157.527C211.898 159.292 209.899 160.936 207.802 162.448C207.133 162.999 207.251 164.121 208.009 164.298L209.052 164.554L204.948 167.507C204.728 167.673 204.571 167.908 204.503 168.175C204.435 168.441 204.46 168.723 204.574 168.974L207.713 175.066L207.448 175.007C207.237 174.997 207.029 175.047 206.845 175.149C206.661 175.252 206.509 175.404 206.407 175.588C206.305 175.772 206.256 175.981 206.266 176.191C206.276 176.402 206.344 176.605 206.464 176.778C208 178.508 209.439 180.322 210.774 182.211C216.181 191.432 224.237 198.812 233.894 203.392C243.467 207.976 254.214 209.522 264.691 207.821C266.983 207.646 269.283 207.603 271.58 207.693C271.801 207.677 272.012 207.596 272.188 207.462C272.364 207.328 272.497 207.145 272.571 206.937C272.645 206.728 272.657 206.503 272.605 206.287C272.553 206.072 272.44 205.877 272.279 205.725L272.053 205.548L278.667 204.091C278.929 204.015 279.157 203.851 279.313 203.627C279.469 203.404 279.543 203.133 279.523 202.861L279.11 197.733Z" fill="#263238"/>
<path opacity="0.8" d="M279.11 197.733L279.966 198.392C280.586 198.865 281.502 198.235 281.492 197.408C281.276 194.809 281.223 192.199 281.334 189.593C283.824 171.729 280.252 148.108 262.998 139.909C245.744 131.71 225.656 144.102 213.786 157.527C211.898 159.292 209.899 160.936 207.802 162.448C207.133 162.999 207.251 164.121 208.009 164.298L209.052 164.554L204.948 167.507C204.728 167.673 204.571 167.908 204.503 168.175C204.435 168.441 204.46 168.723 204.574 168.974L207.713 175.066L207.448 175.007C207.237 174.997 207.029 175.047 206.845 175.149C206.661 175.252 206.509 175.404 206.407 175.588C206.305 175.772 206.256 175.981 206.266 176.191C206.276 176.402 206.344 176.605 206.464 176.778C208 178.508 209.439 180.322 210.774 182.211C216.181 191.432 224.237 198.812 233.894 203.392C243.467 207.976 254.214 209.522 264.691 207.821C266.983 207.646 269.283 207.603 271.58 207.693C271.801 207.677 272.012 207.596 272.188 207.462C272.364 207.328 272.497 207.145 272.571 206.937C272.645 206.728 272.657 206.503 272.605 206.287C272.553 206.072 272.44 205.877 272.279 205.725L272.053 205.548L278.667 204.091C278.929 204.015 279.157 203.851 279.313 203.627C279.469 203.404 279.543 203.133 279.523 202.861L279.11 197.733Z" fill="white"/>
<path d="M262.997 182.733C281.983 182.359 281.501 198.235 281.491 197.359C281.275 194.76 281.223 192.15 281.334 189.544C283.095 176.906 281.816 161.405 274.818 150.509C265.871 148.246 253.588 150.431 247.614 172.507C245.744 179.387 254.818 182.9 262.997 182.733Z" fill="url(#paint17_linear_1615_758)"/>
<path d="M237.201 177.162C237.201 177.162 234.947 173.225 235.804 172.113C236.424 171.316 238.481 172.3 239.268 172.674C240.055 173.048 242.112 174.013 241.906 175.007C241.63 176.404 237.201 177.162 237.201 177.162Z" fill="url(#paint18_linear_1615_758)"/>
<path opacity="0.3" d="M237.201 177.162C237.201 177.162 234.947 173.225 235.804 172.113C236.424 171.316 238.481 172.3 239.268 172.674C240.055 173.048 242.112 174.013 241.906 175.007C241.63 176.404 237.201 177.162 237.201 177.162Z" fill="black"/>
<path d="M240.872 181.257C240.574 181.411 240.246 181.496 239.911 181.505C239.576 181.514 239.243 181.448 238.937 181.311C238.632 181.174 238.361 180.969 238.145 180.713C237.93 180.456 237.775 180.154 237.692 179.829C237.637 179.643 237.512 179.486 237.343 179.39C237.174 179.295 236.975 179.269 236.787 179.318C236.489 179.472 236.161 179.557 235.826 179.566C235.491 179.575 235.158 179.509 234.853 179.372C234.547 179.235 234.276 179.03 234.061 178.774C233.845 178.517 233.69 178.215 233.608 177.891C233.303 176.995 231.876 177.379 232.191 178.284C232.437 179.205 233.031 179.994 233.849 180.485C234.666 180.975 235.642 181.128 236.57 180.912C236.973 181.756 237.686 182.412 238.561 182.743C239.436 183.073 240.405 183.052 241.265 182.684C242.122 182.339 241.757 180.912 240.872 181.257Z" fill="#263238"/>
<path d="M233.441 163.038C231.935 166.316 229.504 168.393 228.027 167.694C226.551 166.995 226.561 163.757 228.027 160.479C229.494 157.202 231.964 155.125 233.431 155.824C234.897 156.523 234.937 159.761 233.441 163.038Z" fill="#263238"/>
<path d="M232.378 159.83C231.787 161.109 230.833 161.936 230.252 161.651C229.671 161.365 229.671 160.115 230.252 158.826C230.833 157.537 231.797 156.72 232.378 156.995C232.959 157.271 232.968 158.541 232.378 159.83Z" fill="white"/>
<path d="M260.094 176.178C258.598 179.456 256.157 181.542 254.691 180.834C253.224 180.125 253.224 176.897 254.691 173.619C256.157 170.342 258.628 168.265 260.104 168.964C261.58 169.662 261.6 172.94 260.094 176.178Z" fill="#263238"/>
<path d="M259.031 173.009C258.441 174.288 257.496 175.115 256.915 174.83C256.334 174.544 256.334 173.294 256.915 172.005C257.496 170.715 258.46 169.898 259.041 170.174C259.622 170.45 259.622 171.719 259.031 173.009Z" fill="white"/>
<path d="M224.405 171.159C221.111 166.127 216.549 162.053 211.177 159.348C210.754 159.141 210.38 159.781 210.803 159.987C216.07 162.633 220.545 166.622 223.775 171.552C224.031 171.946 224.671 171.552 224.405 171.178V171.159Z" fill="#263238"/>
<path d="M223.471 173.56C218.799 169.113 213.204 165.753 207.083 163.718C206.631 163.58 206.434 164.288 206.887 164.436C212.882 166.413 218.367 169.69 222.949 174.032C223.304 174.357 223.825 173.836 223.471 173.511V173.56Z" fill="#263238"/>
<path d="M256.777 187.221C262.587 186.591 268.46 187.504 273.804 189.869C274.237 190.066 274.612 189.426 274.178 189.239C268.722 186.805 262.719 185.855 256.777 186.483C256.305 186.532 256.305 187.27 256.777 187.221Z" fill="#263238"/>
<path d="M255.39 189.504C261.664 190.304 267.686 192.474 273.027 195.863C273.431 196.118 273.795 195.479 273.401 195.223C268.012 191.781 261.929 189.573 255.587 188.756C255.124 188.697 254.927 189.406 255.39 189.465V189.504Z" fill="#263238"/>
<g opacity="0.5">
<path d="M230.872 152.429C232.674 151.07 234.927 150.45 237.171 150.696C238.096 150.834 238.5 149.417 237.565 149.269C234.935 148.915 232.27 149.589 230.124 151.149C229.366 151.7 230.124 152.98 230.872 152.429Z" fill="black"/>
</g>
<g opacity="0.5">
<path d="M263.204 163.639C264.752 165.284 265.605 167.463 265.586 169.721C265.586 170.706 267.033 170.706 267.062 169.721C267.076 167.073 266.068 164.52 264.247 162.596C263.598 161.897 262.555 162.94 263.204 163.639Z" fill="black"/>
</g>
<path opacity="0.3" d="M305.585 160.489C305.585 172.978 301.02 185.035 292.748 194.391C284.476 203.747 273.069 209.756 260.674 211.286C258.598 211.543 256.507 211.671 254.415 211.67C244.292 211.67 234.397 208.668 225.98 203.044C217.564 197.42 211.004 189.427 207.13 180.075C203.257 170.723 202.243 160.433 204.218 150.505C206.193 140.577 211.067 131.457 218.225 124.299C225.382 117.142 234.502 112.267 244.43 110.293C254.358 108.318 264.648 109.331 274 113.205C283.352 117.079 291.346 123.639 296.969 132.055C302.593 140.472 305.595 150.367 305.595 160.489H305.585Z" fill="url(#paint19_linear_1615_758)"/>
<path d="M176.178 158.56C175.313 158.484 174.51 158.079 173.934 157.428C173.799 157.265 173.683 157.087 173.59 156.897C173.501 156.72 173.59 156.897 173.531 156.73C173.497 156.59 173.42 156.465 173.31 156.373C173.2 156.281 173.063 156.226 172.92 156.218C172.789 156.932 172.746 157.659 172.792 158.383C173.685 159.323 174.887 159.91 176.178 160.037C177.162 160.165 177.162 158.688 176.178 158.56Z" fill="url(#paint20_linear_1615_758)"/>
<path d="M179.456 153.777C179.056 153.164 178.816 152.461 178.76 151.732C178.703 151.002 178.831 150.271 179.131 149.604C179.163 149.527 179.179 149.445 179.179 149.362C179.179 149.28 179.163 149.198 179.131 149.121C178.557 149.328 178 149.581 177.467 149.879C177.202 150.727 177.153 151.628 177.325 152.499C177.497 153.371 177.884 154.186 178.452 154.869C179.032 155.509 180.115 154.525 179.456 153.777Z" fill="url(#paint21_linear_1615_758)"/>
<g opacity="0.2">
<path d="M176.178 158.56C175.313 158.484 174.51 158.079 173.934 157.428C173.799 157.265 173.683 157.087 173.59 156.897C173.501 156.72 173.59 156.897 173.531 156.73C173.497 156.59 173.42 156.465 173.31 156.373C173.2 156.281 173.063 156.226 172.92 156.218C172.789 156.932 172.746 157.659 172.792 158.383C173.685 159.323 174.887 159.91 176.178 160.037C177.162 160.165 177.162 158.688 176.178 158.56Z" fill="black"/>
<path d="M179.456 153.777C179.056 153.164 178.816 152.461 178.76 151.732C178.703 151.002 178.831 150.271 179.131 149.604C179.163 149.527 179.179 149.445 179.179 149.362C179.179 149.28 179.163 149.198 179.131 149.121C178.557 149.328 178 149.581 177.467 149.879C177.202 150.727 177.153 151.628 177.325 152.499C177.497 153.371 177.884 154.186 178.452 154.869C179.032 155.509 180.115 154.525 179.456 153.777Z" fill="black"/>
</g>
<path d="M185.529 230.961C192.241 230.134 199.583 231.945 205.715 234.524C223.697 242.073 234.976 259.228 241.709 276.846C243.057 280.359 248.766 278.814 247.398 275.281C240.203 256.452 228.412 238.313 209.445 229.77C202.27 226.532 193.501 224.091 185.529 225.075C181.808 225.528 181.759 231.443 185.529 230.98V230.961Z" fill="url(#paint22_linear_1615_758)"/>
<path d="M260.675 211.286C258.598 211.543 256.508 211.671 254.415 211.669C244.861 211.672 235.496 209 227.382 203.955C219.267 198.911 212.727 191.696 208.501 183.127C208.176 182.467 207.871 181.788 207.575 181.109C207.471 180.863 207.303 180.649 207.09 180.489C206.877 180.328 206.625 180.226 206.36 180.193C206.095 180.16 205.826 180.198 205.58 180.301C205.334 180.405 205.119 180.572 204.957 180.784C204.483 181.442 204.204 182.222 204.154 183.031C204.103 183.841 204.283 184.649 204.672 185.361C209.845 195.488 217.966 203.809 227.964 209.227C237.961 214.646 249.366 216.908 260.675 215.715C261.455 215.649 262.205 215.381 262.849 214.935C263.494 214.489 264.01 213.883 264.346 213.175C264.469 212.922 264.52 212.64 264.493 212.359C264.467 212.079 264.363 211.811 264.194 211.585C264.026 211.36 263.798 211.185 263.537 211.08C263.275 210.975 262.99 210.944 262.712 210.99C262.033 211.108 261.364 211.207 260.675 211.286Z" fill="url(#paint23_linear_1615_758)"/>
<path opacity="0.5" d="M271.974 119.023C269.339 117.725 266.579 116.699 263.735 115.962C263.512 115.903 263.278 115.898 263.053 115.949C262.827 115.999 262.617 116.103 262.44 116.252C262.264 116.4 262.125 116.589 262.037 116.803C261.949 117.016 261.914 117.248 261.934 117.478L262.151 119.88C262.178 120.197 262.312 120.496 262.529 120.728C262.747 120.96 263.037 121.112 263.352 121.159C265.813 121.558 268.236 122.164 270.596 122.97C270.791 123.043 271 123.071 271.208 123.054C271.415 123.037 271.617 122.975 271.798 122.872C271.979 122.769 272.135 122.627 272.256 122.457C272.376 122.287 272.458 122.093 272.495 121.888L272.741 120.569C272.801 120.263 272.758 119.945 272.62 119.666C272.481 119.386 272.254 119.161 271.974 119.023Z" fill="white"/>
<path opacity="0.5" d="M253.982 118.108L253.47 116.74C253.277 116.246 252.931 115.826 252.483 115.541C252.036 115.256 251.509 115.121 250.98 115.155C243.126 115.672 235.553 118.281 229.048 122.713C222.543 127.144 217.343 133.236 213.987 140.356C210.631 147.476 209.243 155.364 209.966 163.202C210.688 171.04 213.496 178.541 218.096 184.928L218.008 184.76C214.903 178.457 213.347 171.504 213.469 164.478C213.59 157.452 215.385 150.557 218.705 144.364C222.025 138.171 226.775 132.86 232.559 128.87C238.343 124.881 244.996 122.328 251.964 121.425C252.334 121.378 252.689 121.249 253.002 121.046C253.315 120.843 253.579 120.572 253.773 120.253C253.967 119.934 254.086 119.576 254.122 119.204C254.158 118.833 254.11 118.458 253.982 118.108Z" fill="white"/>
<path d="M203.638 246.688C203.638 246.688 214.651 207.929 194.78 214.337C172.881 221.403 189.75 233.913 181.502 255.507C175.843 270.271 185.361 269.621 191.906 267.731C191.906 267.731 173.835 301.195 202.732 292.042C231.629 282.889 233.903 261.757 227.013 250.33C220.124 238.903 203.638 246.688 203.638 246.688Z" fill="url(#paint24_linear_1615_758)"/>
<path opacity="0.5" d="M203.638 246.688C203.638 246.688 214.651 207.929 194.78 214.337C172.881 221.403 189.75 233.913 181.502 255.507C175.843 270.271 185.361 269.621 191.906 267.731C191.906 267.731 173.835 301.195 202.732 292.042C231.629 282.889 233.903 261.757 227.013 250.33C220.124 238.903 203.638 246.688 203.638 246.688Z" fill="white"/>
<path d="M190.292 216.148C175.529 223.471 189.131 235.646 181.543 255.517C180.433 258.047 179.853 260.777 179.84 263.539C180.056 264.08 186.838 280.271 198.334 245.153C209.642 210.705 191.592 215.744 190.292 216.148Z" fill="url(#paint25_linear_1615_758)"/>
<path opacity="0.2" d="M190.292 216.148C175.529 223.471 189.131 235.646 181.543 255.517C180.433 258.047 179.853 260.777 179.84 263.539C180.056 264.08 186.838 280.271 198.334 245.153C209.642 210.705 191.592 215.744 190.292 216.148Z" fill="white"/>
<g opacity="0.5">
<path d="M186.02 225.39L197.625 221.108C198.51 220.784 198.127 219.356 197.231 219.691L185.627 223.963C184.751 224.287 185.125 225.715 186.02 225.39Z" fill="white"/>
<path d="M186.02 232.358L197.625 228.077C198.51 227.752 198.127 226.325 197.231 226.66L185.627 230.931C184.751 231.256 185.125 232.693 186.02 232.358Z" fill="white"/>
<path d="M186.336 239.346L197.94 235.065C198.826 234.74 198.442 233.313 197.546 233.648L185.952 237.919C185.066 238.254 185.45 239.681 186.336 239.346Z" fill="white"/>
<path d="M186.424 247.043L196.05 243.5C196.936 243.165 196.552 241.738 195.656 242.073L186.03 245.616C185.145 245.951 185.528 247.378 186.424 247.043Z" fill="white"/>
<path d="M184.465 254.986L192.861 251.895C193.747 251.561 193.363 250.134 192.467 250.468L184.052 253.569C183.166 253.893 183.55 255.32 184.446 254.986H184.465Z" fill="white"/>
<path d="M182.143 262.151L190.538 259.051C191.424 258.726 191.04 257.299 190.145 257.623L181.749 260.724C180.863 261.049 181.247 262.476 182.143 262.151Z" fill="white"/>
</g>
<path d="M203.639 246.689C203.639 246.689 220.134 238.893 227.024 250.33C233.914 261.767 231.62 282.859 202.743 292.042C189.889 296.136 186.346 291.757 186.365 285.654C185.735 292.849 188.914 298.587 203.501 293.942C233.825 284.296 236.236 262.131 229.002 250.124C221.768 238.116 204.446 246.305 204.446 246.305L203.639 246.689Z" fill="url(#paint26_linear_1615_758)"/>
<path opacity="0.2" d="M203.639 246.689C203.639 246.689 220.134 238.893 227.024 250.33C233.914 261.767 231.62 282.859 202.743 292.042C189.889 296.136 186.346 291.757 186.365 285.654C185.735 292.849 188.914 298.587 203.501 293.942C233.825 284.296 236.236 262.131 229.002 250.124C221.768 238.116 204.446 246.305 204.446 246.305L203.639 246.689Z" fill="white"/>
<path d="M203.619 244.74C201.167 252.958 196.825 260.488 190.942 266.728C189.633 268.106 191.719 270.192 193.028 268.814C199.281 262.227 203.9 254.265 206.512 245.567C207.044 243.736 204.19 242.958 203.658 244.779L203.619 244.74Z" fill="url(#paint27_linear_1615_758)"/>
<g opacity="0.2">
<path d="M203.619 244.74C201.167 252.958 196.825 260.488 190.942 266.728C189.633 268.106 191.719 270.192 193.028 268.814C199.281 262.227 203.9 254.265 206.512 245.567C207.044 243.736 204.19 242.958 203.658 244.779L203.619 244.74Z" fill="white"/>
</g>
<path d="M256.541 221.276C249.838 218.746 246.374 216.955 237.102 204.101C225.587 188.137 203.186 213.943 207.467 220.931C211.749 227.919 225.459 231.246 227.152 216.886L228.294 216.955C228.294 216.955 232.231 227.634 235.026 233.431C240.567 244.897 255.006 249.425 261.295 239.74C263.992 235.537 265.33 224.602 256.541 221.276Z" fill="url(#paint28_linear_1615_758)"/>
<path d="M256.541 221.276C249.838 218.746 246.374 216.955 237.102 204.101C225.587 188.137 203.186 213.943 207.467 220.931C211.749 227.919 225.459 231.246 227.152 216.886L228.294 216.955C228.294 216.955 232.231 227.634 235.026 233.431C240.567 244.897 255.006 249.425 261.295 239.74C263.992 235.537 265.33 224.602 256.541 221.276Z" fill="url(#paint29_linear_1615_758)"/>
<path opacity="0.5" d="M256.541 221.276C249.838 218.746 246.374 216.955 237.102 204.101C225.587 188.137 203.186 213.943 207.467 220.931C211.749 227.919 225.459 231.246 227.152 216.886L228.294 216.955C228.294 216.955 232.231 227.634 235.026 233.431C240.567 244.897 255.006 249.425 261.295 239.74C263.992 235.537 265.33 224.602 256.541 221.276Z" fill="white"/>
<path d="M256.541 221.276C266.216 224.917 262.594 236.384 259.424 240.202C254.848 245.734 250.369 246.108 246.324 243.864C250.488 247.801 255.625 248.303 261.767 241.718C266.107 237.063 268.145 221.817 256.541 221.276Z" fill="url(#paint30_linear_1615_758)"/>
<path opacity="0.2" d="M256.541 221.276C266.216 224.917 262.594 236.384 259.424 240.202C254.848 245.734 250.369 246.108 246.324 243.864C250.488 247.801 255.625 248.303 261.767 241.718C266.107 237.063 268.145 221.817 256.541 221.276Z" fill="white"/>
<path d="M224.563 199.947C226.079 202.391 227.058 205.129 227.433 207.98C227.808 210.832 227.571 213.73 226.738 216.483C226.354 217.841 228.382 218.727 228.775 217.368C230.586 211.128 229.996 204.121 226.324 198.609C225.527 197.428 223.765 198.766 224.563 199.947Z" fill="url(#paint31_linear_1615_758)"/>
<g opacity="0.2">
<path d="M224.563 199.947C226.079 202.391 227.058 205.129 227.433 207.98C227.808 210.832 227.571 213.73 226.738 216.483C226.354 217.841 228.382 218.727 228.775 217.368C230.586 211.128 229.996 204.121 226.324 198.609C225.527 197.428 223.765 198.766 224.563 199.947Z" fill="white"/>
</g>
<path d="M211.404 215.548C210.51 216.524 209.826 217.673 209.393 218.924C208.959 220.175 208.786 221.501 208.884 222.821C209.26 223.213 209.662 223.582 210.085 223.923C210.185 223.852 210.265 223.755 210.315 223.642C210.365 223.53 210.384 223.406 210.37 223.284C210.183 221.04 210.665 218.362 212.339 216.719C212.978 216.04 212.083 214.859 211.404 215.548Z" fill="url(#paint32_linear_1615_758)"/>
<path d="M217.142 218.559C216.045 219.473 215.189 220.641 214.648 221.962C214.108 223.284 213.899 224.717 214.041 226.138C214.543 226.322 215.056 226.473 215.577 226.591C215.582 226.558 215.582 226.525 215.577 226.492C215.353 225.246 215.463 223.962 215.897 222.773C216.331 221.583 217.073 220.53 218.047 219.721C218.766 219.11 217.87 217.939 217.142 218.559Z" fill="url(#paint33_linear_1615_758)"/>
<g opacity="0.2">
<path d="M211.404 215.548C210.51 216.524 209.826 217.673 209.393 218.924C208.959 220.175 208.786 221.501 208.884 222.821C209.26 223.213 209.662 223.582 210.085 223.923C210.185 223.852 210.265 223.755 210.315 223.642C210.365 223.53 210.384 223.406 210.37 223.284C210.183 221.04 210.665 218.362 212.339 216.719C212.978 216.04 212.083 214.859 211.404 215.548Z" fill="black"/>
<path d="M217.142 218.559C216.045 219.473 215.189 220.641 214.648 221.962C214.108 223.284 213.899 224.717 214.041 226.138C214.543 226.322 215.056 226.473 215.577 226.591C215.582 226.558 215.582 226.525 215.577 226.492C215.353 225.246 215.463 223.962 215.897 222.773C216.331 221.583 217.073 220.53 218.047 219.721C218.766 219.11 217.87 217.939 217.142 218.559Z" fill="black"/>
</g>
<path d="M250.842 223.923L257.476 226.64C257.799 228.854 257.596 231.112 256.883 233.233C256.17 235.353 254.967 237.276 253.372 238.844C253.372 238.844 250.173 239.081 245.626 234.356C245.626 234.356 250.537 230.163 250.842 223.923Z" fill="white"/>
<path d="M251.59 233.559C251.256 233.393 250.979 233.132 250.795 232.808C250.61 232.484 250.525 232.113 250.552 231.741C250.578 231.369 250.715 231.014 250.944 230.72C251.173 230.426 251.485 230.206 251.839 230.09C252.193 229.973 252.573 229.964 252.932 230.065C253.291 230.165 253.613 230.37 253.855 230.653C254.097 230.936 254.25 231.285 254.294 231.655C254.337 232.025 254.27 232.4 254.1 232.732C253.877 233.174 253.487 233.51 253.016 233.665C252.546 233.82 252.033 233.782 251.59 233.559Z" fill="url(#paint34_linear_1615_758)"/>
<path d="M251.965 233.697L251.719 233.608C251.276 234.307 250.931 234.74 250.813 234.681C250.695 234.622 251.118 233.214 251.935 231.62C252.752 230.026 253.549 228.815 253.746 228.913C253.943 229.012 253.746 229.504 253.411 230.272L253.628 230.419C254.425 228.657 254.848 227.319 254.612 227.201C254.376 227.083 253.018 228.982 251.728 231.512C250.439 234.041 249.642 236.236 249.947 236.433C250.252 236.63 250.98 235.38 251.965 233.697Z" fill="url(#paint35_linear_1615_758)"/>
<path opacity="0.4" d="M251.965 233.697L251.719 233.608C251.276 234.307 250.931 234.74 250.813 234.681C250.695 234.622 251.118 233.214 251.935 231.62C252.752 230.026 253.549 228.815 253.746 228.913C253.943 229.012 253.746 229.504 253.411 230.272L253.628 230.419C254.425 228.657 254.848 227.319 254.612 227.201C254.376 227.083 253.018 228.982 251.728 231.512C250.439 234.041 249.642 236.236 249.947 236.433C250.252 236.63 250.98 235.38 251.965 233.697Z" fill="white"/>
<path opacity="0.3" d="M141.444 187.005C136.728 192.59 133.06 198.982 130.618 205.872C127.36 207.427 122.389 188.579 123.659 179.062C125.738 177.304 127.924 175.677 130.204 174.19H130.263C131.576 173.32 133.117 172.857 134.692 172.861H135.057C136.677 172.901 138.254 173.397 139.605 174.293C140.956 175.189 142.027 176.448 142.694 177.926C143.362 179.403 143.598 181.039 143.377 182.645C143.156 184.251 142.486 185.762 141.444 187.005Z" fill="url(#paint36_linear_1615_758)"/>
<path opacity="0.3" d="M134.141 254.602C133.827 254.813 133.457 254.926 133.078 254.927C132.987 254.936 132.894 254.936 132.803 254.927C119.397 253.076 106.523 243.854 100.254 231.925L100.342 225.655C100.685 225.642 101.025 225.719 101.329 225.878C101.633 226.037 101.89 226.272 102.075 226.561L102.626 227.407C102.841 227.73 102.951 228.112 102.941 228.5C108.157 239.809 119.909 248.785 132.33 250.872C132.871 252.112 133.492 253.362 134.141 254.602Z" fill="url(#paint37_linear_1615_758)"/>
<path opacity="0.3" d="M165.922 282.977C165.807 283.297 165.606 283.58 165.342 283.794C159.494 288.541 152.369 291.445 144.87 292.141C142.411 291.303 140.005 290.317 137.665 289.188C137.855 288.898 138.118 288.664 138.427 288.509C138.736 288.353 139.081 288.282 139.427 288.302C147.564 288.766 155.597 286.294 162.064 281.334C163.383 281.934 164.633 282.475 165.922 282.977Z" fill="url(#paint38_linear_1615_758)"/>
<path d="M188.823 91.6241C191.802 71.2775 177.723 52.3683 157.376 49.3891C137.03 46.41 118.12 60.4891 115.141 80.8357C112.162 101.182 126.241 120.092 146.588 123.071C166.934 126.05 185.844 111.971 188.823 91.6241Z" fill="url(#paint39_linear_1615_758)"/>
<path opacity="0.6" d="M188.823 91.6241C191.802 71.2775 177.723 52.3683 157.376 49.3891C137.03 46.41 118.12 60.4891 115.141 80.8357C112.162 101.182 126.241 120.092 146.588 123.071C166.934 126.05 185.844 111.971 188.823 91.6241Z" fill="white"/>
<path opacity="0.2" d="M172.93 55.4419C172.024 60.3631 168.54 64.8905 166.631 70.2054C164.259 76.8096 169.829 81.032 164.337 91.9176C158.845 102.803 152.369 102.055 148.727 107.282C146.208 110.884 141.188 117.311 138.354 120.913C144.49 123.314 151.153 124.044 157.664 123.029C161.749 118.216 169.475 111.218 167.91 110.372C165.646 109.122 160.174 116.691 157.664 115.372C155.154 114.053 159.633 110.972 169.77 103.65C179.908 96.327 179.209 82.6757 179.947 75.5301C180.286 72.244 181.529 69.1163 183.54 66.4948C180.813 62.1104 177.199 58.3453 172.93 55.4419Z" fill="url(#paint40_linear_1615_758)"/>
<path opacity="0.2" d="M172.93 55.4419C172.024 60.3631 168.54 64.8905 166.631 70.2054C164.259 76.8096 169.829 81.032 164.337 91.9176C158.845 102.803 152.369 102.055 148.727 107.282C146.208 110.884 141.188 117.311 138.354 120.913C144.49 123.314 151.153 124.044 157.664 123.029C161.749 118.216 169.475 111.218 167.91 110.372C165.646 109.122 160.174 116.691 157.664 115.372C155.154 114.053 159.633 110.972 169.77 103.65C179.908 96.327 179.209 82.6757 179.947 75.5301C180.286 72.244 181.529 69.1163 183.54 66.4948C180.813 62.1104 177.199 58.3453 172.93 55.4419Z" fill="black"/>
<path opacity="0.2" d="M130.312 80.7072C131.68 80.9631 132.428 83.0497 131.985 85.3725C131.543 87.6953 130.076 89.3094 128.718 89.0929C127.359 88.8764 126.602 86.7406 127.045 84.4276C127.487 82.1147 128.934 80.4808 130.312 80.7072Z" fill="black"/>
<path d="M154.603 49.0935C149.387 62.922 141.808 58.9359 137.497 69.29C132.999 79.969 143.186 79.9886 134.545 93.5514C128.541 102.99 124.249 107.006 122.192 108.581C124.248 111.331 126.68 113.78 129.417 115.854C131.306 114.545 134.859 111.484 139.259 104.821C145.893 94.8309 148.432 99.821 154.623 90.7365C160.814 81.652 153.57 74.9001 157.861 66.1306C160.302 61.1307 163.166 55.806 164.642 51.2785C161.412 50.0918 158.034 49.3565 154.603 49.0935ZM150.263 79.654C149.623 83.0299 147.497 85.4511 145.509 85.0771C143.521 84.7031 142.438 81.6618 143.078 78.2859C143.718 74.91 145.853 72.4986 147.842 72.8726C149.83 73.2466 150.912 76.2879 150.263 79.654Z" fill="url(#paint41_linear_1615_758)"/>
<path d="M177.595 101.662C178.746 102.439 178.579 104.614 177.29 106.583C176 108.551 173.973 109.535 172.821 108.719C171.67 107.902 171.837 105.766 173.126 103.797C174.416 101.829 176.443 100.884 177.595 101.662Z" fill="url(#paint42_linear_1615_758)"/>
<g opacity="0.3">
<path d="M154.603 49.0935C149.387 62.922 141.808 58.9359 137.497 69.29C132.999 79.969 143.186 79.9886 134.545 93.5514C128.541 102.99 124.249 107.006 122.192 108.581C124.248 111.331 126.68 113.78 129.417 115.854C131.306 114.545 134.859 111.484 139.259 104.821C145.893 94.8309 148.432 99.821 154.623 90.7365C160.814 81.652 153.57 74.9001 157.861 66.1306C160.302 61.1307 163.166 55.806 164.642 51.2785C161.412 50.0918 158.034 49.3565 154.603 49.0935ZM150.263 79.654C149.623 83.0299 147.497 85.4511 145.509 85.0771C143.521 84.7031 142.438 81.6618 143.078 78.2859C143.718 74.91 145.853 72.4986 147.842 72.8726C149.83 73.2466 150.912 76.2879 150.263 79.654Z" fill="white"/>
<path d="M177.595 101.662C178.746 102.439 178.579 104.614 177.29 106.583C176 108.551 173.973 109.535 172.821 108.719C171.67 107.902 171.837 105.766 173.126 103.797C174.416 101.829 176.443 100.884 177.595 101.662Z" fill="white"/>
</g>
<path d="M182.526 64.9595C183.038 65.7075 183.51 66.4654 184.012 67.2626C184.219 67.6071 184.396 67.9614 184.583 68.3059C188.658 66.928 191.296 66.5835 191.876 67.5579C193.5 70.3137 177.94 82.5478 157.113 94.8901C136.287 107.232 118.108 115.008 116.445 112.252C115.864 111.268 117.429 109.142 120.598 106.228C120.391 105.894 120.155 105.569 119.949 105.244C119.486 104.447 119.063 103.64 118.649 102.833C101.642 114.841 91.2384 124.486 92.9903 127.439C95.6675 131.947 125.47 119.22 159.564 99.014C193.658 78.8077 219.13 58.7687 216.463 54.2609C214.701 51.318 201.236 55.7963 182.526 64.9595Z" fill="url(#paint43_linear_1615_758)"/>
<defs>
<linearGradient id="paint0_linear_1615_758" x1="244.86" y1="52.0767" x2="244.86" y2="285.384" gradientUnits="userSpaceOnUse">
<stop stop-color="#057AFF"/>
<stop offset="1" stop-color="#1FC9FF"/>
</linearGradient>
<linearGradient id="paint1_linear_1615_758" x1="289.309" y1="269.375" x2="289.309" y2="278.848" gradientUnits="userSpaceOnUse">
<stop stop-color="#057AFF"/>
<stop offset="1" stop-color="#1FC9FF"/>
</linearGradient>
<linearGradient id="paint2_linear_1615_758" x1="273.125" y1="226.366" x2="273.125" y2="309.574" gradientUnits="userSpaceOnUse">
<stop stop-color="#057AFF"/>
<stop offset="1" stop-color="#1FC9FF"/>
</linearGradient>
<linearGradient id="paint3_linear_1615_758" x1="336.751" y1="205.982" x2="336.751" y2="248.687" gradientUnits="userSpaceOnUse">
<stop stop-color="#057AFF"/>
<stop offset="1" stop-color="#1FC9FF"/>
</linearGradient>
<linearGradient id="paint4_linear_1615_758" x1="376.236" y1="205.109" x2="376.236" y2="229.533" gradientUnits="userSpaceOnUse">
<stop stop-color="#057AFF"/>
<stop offset="1" stop-color="#1FC9FF"/>
</linearGradient>
<linearGradient id="paint5_linear_1615_758" x1="142.915" y1="172.861" x2="142.915" y2="295.745" gradientUnits="userSpaceOnUse">
<stop stop-color="#057AFF"/>
<stop offset="1" stop-color="#1FC9FF"/>
</linearGradient>
<linearGradient id="paint6_linear_1615_758" x1="184.639" y1="285.549" x2="184.639" y2="294.007" gradientUnits="userSpaceOnUse">
<stop stop-color="#057AFF"/>
<stop offset="1" stop-color="#1FC9FF"/>
</linearGradient>
<linearGradient id="paint7_linear_1615_758" x1="191.44" y1="148.245" x2="191.44" y2="217.215" gradientUnits="userSpaceOnUse">
<stop stop-color="#057AFF"/>
<stop offset="1" stop-color="#1FC9FF"/>
</linearGradient>
<linearGradient id="paint8_linear_1615_758" x1="186.183" y1="155.993" x2="186.183" y2="168.878" gradientUnits="userSpaceOnUse">
<stop stop-color="#057AFF"/>
<stop offset="1" stop-color="#1FC9FF"/>
</linearGradient>
<linearGradient id="paint9_linear_1615_758" x1="194.532" y1="163.381" x2="194.532" y2="173.359" gradientUnits="userSpaceOnUse">
<stop stop-color="#057AFF"/>
<stop offset="1" stop-color="#1FC9FF"/>
</linearGradient>
<linearGradient id="paint10_linear_1615_758" x1="166.869" y1="214.479" x2="166.869" y2="278.87" gradientUnits="userSpaceOnUse">
<stop stop-color="#057AFF"/>
<stop offset="1" stop-color="#1FC9FF"/>
</linearGradient>
<linearGradient id="paint11_linear_1615_758" x1="152.958" y1="217.304" x2="152.958" y2="266.189" gradientUnits="userSpaceOnUse">
<stop stop-color="#057AFF"/>
<stop offset="1" stop-color="#1FC9FF"/>
</linearGradient>
<linearGradient id="paint12_linear_1615_758" x1="165.709" y1="240.723" x2="165.709" y2="264.226" gradientUnits="userSpaceOnUse">
<stop stop-color="#057AFF"/>
<stop offset="1" stop-color="#1FC9FF"/>
</linearGradient>
<linearGradient id="paint13_linear_1615_758" x1="217.393" y1="179.849" x2="217.393" y2="295.719" gradientUnits="userSpaceOnUse">
<stop stop-color="#057AFF"/>
<stop offset="1" stop-color="#1FC9FF"/>
</linearGradient>
<linearGradient id="paint14_linear_1615_758" x1="254.415" y1="109.309" x2="254.415" y2="211.67" gradientUnits="userSpaceOnUse">
<stop stop-color="#057AFF"/>
<stop offset="1" stop-color="#1FC9FF"/>
</linearGradient>
<linearGradient id="paint15_linear_1615_758" x1="270.536" y1="146.434" x2="270.536" y2="206.857" gradientUnits="userSpaceOnUse">
<stop stop-color="#057AFF"/>
<stop offset="1" stop-color="#1FC9FF"/>
</linearGradient>
<linearGradient id="paint16_linear_1615_758" x1="279.132" y1="146.376" x2="279.132" y2="176.766" gradientUnits="userSpaceOnUse">
<stop stop-color="#057AFF"/>
<stop offset="1" stop-color="#1FC9FF"/>
</linearGradient>
<linearGradient id="paint17_linear_1615_758" x1="264.705" y1="149.807" x2="264.705" y2="197.394" gradientUnits="userSpaceOnUse">
<stop stop-color="#057AFF"/>
<stop offset="1" stop-color="#1FC9FF"/>
</linearGradient>
<linearGradient id="paint18_linear_1615_758" x1="238.765" y1="171.81" x2="238.765" y2="177.162" gradientUnits="userSpaceOnUse">
<stop stop-color="#057AFF"/>
<stop offset="1" stop-color="#1FC9FF"/>
</linearGradient>
<linearGradient id="paint19_linear_1615_758" x1="254.415" y1="109.309" x2="254.415" y2="211.67" gradientUnits="userSpaceOnUse">
<stop stop-color="#057AFF"/>
<stop offset="1" stop-color="#1FC9FF"/>
</linearGradient>
<linearGradient id="paint20_linear_1615_758" x1="174.845" y1="156.218" x2="174.845" y2="160.044" gradientUnits="userSpaceOnUse">
<stop stop-color="#057AFF"/>
<stop offset="1" stop-color="#1FC9FF"/>
</linearGradient>
<linearGradient id="paint21_linear_1615_758" x1="178.443" y1="149.121" x2="178.443" y2="155.076" gradientUnits="userSpaceOnUse">
<stop stop-color="#057AFF"/>
<stop offset="1" stop-color="#1FC9FF"/>
</linearGradient>
<linearGradient id="paint22_linear_1615_758" x1="215.164" y1="224.854" x2="215.164" y2="278.831" gradientUnits="userSpaceOnUse">
<stop stop-color="#057AFF"/>
<stop offset="1" stop-color="#1FC9FF"/>
</linearGradient>
<linearGradient id="paint23_linear_1615_758" x1="234.323" y1="180.182" x2="234.323" y2="216.025" gradientUnits="userSpaceOnUse">
<stop stop-color="#057AFF"/>
<stop offset="1" stop-color="#1FC9FF"/>
</linearGradient>
<linearGradient id="paint24_linear_1615_758" x1="205.023" y1="213.622" x2="205.023" y2="293.628" gradientUnits="userSpaceOnUse">
<stop stop-color="#057AFF"/>
<stop offset="1" stop-color="#1FC9FF"/>
</linearGradient>
<linearGradient id="paint25_linear_1615_758" x1="190.94" y1="215.665" x2="190.94" y2="267.731" gradientUnits="userSpaceOnUse">
<stop stop-color="#057AFF"/>
<stop offset="1" stop-color="#1FC9FF"/>
</linearGradient>
<linearGradient id="paint26_linear_1615_758" x1="209.354" y1="243.579" x2="209.354" y2="295.618" gradientUnits="userSpaceOnUse">
<stop stop-color="#057AFF"/>
<stop offset="1" stop-color="#1FC9FF"/>
</linearGradient>
<linearGradient id="paint27_linear_1615_758" x1="198.552" y1="243.742" x2="198.552" y2="269.266" gradientUnits="userSpaceOnUse">
<stop stop-color="#057AFF"/>
<stop offset="1" stop-color="#1FC9FF"/>
</linearGradient>
<linearGradient id="paint28_linear_1615_758" x1="235.128" y1="198.977" x2="235.128" y2="245.023" gradientUnits="userSpaceOnUse">
<stop stop-color="#057AFF"/>
<stop offset="1" stop-color="#1FC9FF"/>
</linearGradient>
<linearGradient id="paint29_linear_1615_758" x1="235.128" y1="198.977" x2="235.128" y2="245.023" gradientUnits="userSpaceOnUse">
<stop stop-color="#057AFF"/>
<stop offset="1" stop-color="#1FC9FF"/>
</linearGradient>
<linearGradient id="paint30_linear_1615_758" x1="255.759" y1="221.276" x2="255.759" y2="246.761" gradientUnits="userSpaceOnUse">
<stop stop-color="#057AFF"/>
<stop offset="1" stop-color="#1FC9FF"/>
</linearGradient>
<linearGradient id="paint31_linear_1615_758" x1="227.063" y1="198.15" x2="227.063" y2="218.046" gradientUnits="userSpaceOnUse">
<stop stop-color="#057AFF"/>
<stop offset="1" stop-color="#1FC9FF"/>
</linearGradient>
<linearGradient id="paint32_linear_1615_758" x1="210.708" y1="215.339" x2="210.708" y2="223.923" gradientUnits="userSpaceOnUse">
<stop stop-color="#057AFF"/>
<stop offset="1" stop-color="#1FC9FF"/>
</linearGradient>
<linearGradient id="paint33_linear_1615_758" x1="216.155" y1="218.383" x2="216.155" y2="226.591" gradientUnits="userSpaceOnUse">
<stop stop-color="#057AFF"/>
<stop offset="1" stop-color="#1FC9FF"/>
</linearGradient>
<linearGradient id="paint34_linear_1615_758" x1="252.427" y1="229.995" x2="252.427" y2="233.758" gradientUnits="userSpaceOnUse">
<stop stop-color="#057AFF"/>
<stop offset="1" stop-color="#1FC9FF"/>
</linearGradient>
<linearGradient id="paint35_linear_1615_758" x1="252.28" y1="227.196" x2="252.28" y2="236.453" gradientUnits="userSpaceOnUse">
<stop stop-color="#057AFF"/>
<stop offset="1" stop-color="#1FC9FF"/>
</linearGradient>
<linearGradient id="paint36_linear_1615_758" x1="133.457" y1="172.861" x2="133.457" y2="205.963" gradientUnits="userSpaceOnUse">
<stop stop-color="#057AFF"/>
<stop offset="1" stop-color="#1FC9FF"/>
</linearGradient>
<linearGradient id="paint37_linear_1615_758" x1="117.198" y1="225.654" x2="117.198" y2="254.934" gradientUnits="userSpaceOnUse">
<stop stop-color="#057AFF"/>
<stop offset="1" stop-color="#1FC9FF"/>
</linearGradient>
<linearGradient id="paint38_linear_1615_758" x1="151.794" y1="281.334" x2="151.794" y2="292.141" gradientUnits="userSpaceOnUse">
<stop stop-color="#057AFF"/>
<stop offset="1" stop-color="#1FC9FF"/>
</linearGradient>
<linearGradient id="paint39_linear_1615_758" x1="115.141" y1="80.8357" x2="188.823" y2="91.6241" gradientUnits="userSpaceOnUse">
<stop stop-color="#057AFF"/>
<stop offset="1" stop-color="#1FC9FF"/>
</linearGradient>
<linearGradient id="paint40_linear_1615_758" x1="160.947" y1="55.4419" x2="160.947" y2="123.474" gradientUnits="userSpaceOnUse">
<stop stop-color="#057AFF"/>
<stop offset="1" stop-color="#1FC9FF"/>
</linearGradient>
<linearGradient id="paint41_linear_1615_758" x1="143.417" y1="49.0935" x2="143.417" y2="115.854" gradientUnits="userSpaceOnUse">
<stop stop-color="#057AFF"/>
<stop offset="1" stop-color="#1FC9FF"/>
</linearGradient>
<linearGradient id="paint42_linear_1615_758" x1="175.208" y1="101.39" x2="175.208" y2="109.007" gradientUnits="userSpaceOnUse">
<stop stop-color="#057AFF"/>
<stop offset="1" stop-color="#1FC9FF"/>
</linearGradient>
<linearGradient id="paint43_linear_1615_758" x1="154.727" y1="53.363" x2="154.727" y2="128.346" gradientUnits="userSpaceOnUse">
<stop stop-color="#057AFF"/>
<stop offset="1" stop-color="#1FC9FF"/>
</linearGradient>
</defs>
</svg>
